<?xml version="1.0" encoding="UTF-8"?>
<svg xmlns="http://www.w3.org/2000/svg" xmlns:xlink="http://www.w3.org/1999/xlink"
     width="600" height="600" viewBox="0 0 600 600">
<defs>
</defs>
<rect x="100" y="150" width="150" height="15" fill="#000000" />
<rect x="400" y="150" width="100" height="15" fill="#000000" />
<rect x="100" y="150" width="15" height="50" fill="#000000" />
<rect x="100" y="290" width="15" height="40" fill="#000000" />
<rect x="100" y="420" width="15" height="30" fill="#000000" />
<rect x="485" y="150" width="15" height="300" fill="#000000" />
<rect x="100" y="435" width="400" height="15" fill="#000000" />
<rect x="330" y="158" width="9" height="142" fill="#000000" />
<rect x="100" y="310" width="150" height="10" fill="#000000" />
<rect x="300" y="350" width="10" height="100" fill="#000000" />
<rect x="10" y="200" width="90" height="5" fill="#000000" />
<path d="M100.0,290.0 A90,90,0,0,1,10.0,200.0" stroke="#000000" fill="none" stroke-width="5" />
<rect x="250" y="150" width="150" height="15" fill="#99ccff" />
<rect x="100" y="165" width="150" height="145" fill="#99ccff" />
<rect x="100" y="330" width="15" height="90" fill="#99ccff" />
</svg>